<?xml version="1.0" encoding="UTF-8"?>
<svg width="210mm" height="297mm" version="1.1" viewBox="0 0 210 297" xmlns="http://www.w3.org/2000/svg" xmlns:cc="http://creativecommons.org/ns#" xmlns:dc="http://purl.org/dc/elements/1.1/" xmlns:rdf="http://www.w3.org/1999/02/22-rdf-syntax-ns#">
 <metadata>
  <rdf:RDF>
   <cc:Work rdf:about="">
    <dc:format>image/svg+xml</dc:format>
    <dc:type rdf:resource="http://purl.org/dc/dcmitype/StillImage"/>
    <dc:title/>
   </cc:Work>
  </rdf:RDF>
 </metadata>
 <g transform="matrix(.11891 0 0 -.11891 35.832 208.86)">
  <path d="m704 512c0 35.333-12.5 65.5-37.5 90.5s-55.167 37.5-90.5 37.5-65.5-12.5-90.5-37.5-37.5-55.167-37.5-90.5c0-24.667 6.3333-47 19-67s29.667-35.667 51-47l-69-229c-3.3333-10-1.6667-19.333 5-28s15.333-13 26-13h192c10.667 0 19.333 4.3333 26 13s8.3333 18 5 28l-69 229c21.333 11.333 38.333 27 51 47s19 42.333 19 67zm-384 256h704v271.83l-186.94 6.1948s-30.061 44.971-80.061 94.971-110.33 75-181 75-131-25-181-75-75-110.33-75-181zm832-96v-576c0-26.667-9.3333-49.333-28-68s-41.333-28-68-28h-960c-26.667 0-49.333 9.3333-68 28-18.667 18.667-28 41.333-28 68v576c0 26.667 9.3333 49.333 28 68 18.667 18.667 41.333 28 68 28h32v192c0 122.67 44 228 132 316s193.33 132 316 132 228-44 316-132 132-191.24 132-236.17v-271.83h32c26.667 0 49.333-9.3333 68-28s28-41.333 28-68z" fill="currentColor"/>
 </g>
</svg>
